<svg width="322" height="20" viewBox="0 0 322 20" fill="none" xmlns="http://www.w3.org/2000/svg">
<path d="M136.6 19H127.1L108.6 6.1L105.6 18.9H97.3L101.5 1H111L129.5 14.1L132.5 1H140.8L136.6 19Z" fill="#DF1F26"/>
<path d="M182.8 4.9H154.2C153.5 4.9 152.9 5 152.4 5.2C151.9 5.4 151.6 5.7 151.5 6L151.4 7C151.3 7.3 151.5 7.6 151.9 7.8C152.3 8 152.9 8.1 153.5 8.1H177.3C178.6 8.1 179.7 8.3 180.5 8.7C181.3 9.1 181.7 9.6 181.5 10.2L180 16.7C179.9 17.3 179.3 17.8 178.3 18.2C177.3 18.6 176.1 18.8 174.8 18.8H140.2L141.1 15H169.7C170.4 15 171 14.9 171.5 14.7C172 14.5 172.3 14.2 172.4 13.9L172.7 12.8C172.8 12.5 172.6 12.3 172.2 12C171.8 11.8 171.2 11.7 170.6 11.7H146.8C145.5 11.7 144.4 11.5 143.6 11.1C142.8 10.7 142.4 10.2 142.6 9.6L144.1 3.1C144.2 2.5 144.8 2 145.8 1.6C146.8 1.2 148 1 149.3 1H183.9L182.8 4.9Z" fill="#DF1F26"/>
<path d="M261.6 8.10001L260.7 11.9H235.7L235.2 14.1C235.1 14.4 235.3 14.6 235.7 14.9C236.1 15.1 236.7 15.2 237.3 15.2H265.9L265 19H230.4C229.1 19 228 18.8 227.2 18.4C226.4 18 226 17.5 226.1 16.9L229.3 3.30001C229.4 2.70001 230 2.20001 231.1 1.80001C232.1 1.40001 233.3 1.20001 234.6 1.20001H269.2L268.3 5.00001H239.7C239 5.00001 238.4 5.10001 237.9 5.30001C237.4 5.50001 237.1 5.80001 237 6.10001L236.5 8.30001H261.6V8.10001Z" fill="#DF1F26"/>
<path d="M50.6 19H42.2L44.5 9.2L32.2 19H29.6L21.8 9.2L19.5 19H11.1L15.2 1H23.6L32.3 12.1L46.4 1.1H54.8L50.6 19Z" fill="#DF1F26"/>
<path d="M94.3 16.8C94.2 17.4 93.6 17.9 92.6 18.3C91.6 18.7 90.4 18.9 89.1 18.9H59.2C57.9 18.9 56.8 18.7 56 18.3C55.2 17.9 54.8 17.4 54.9 16.8L58.1 3.20001C58.2 2.60001 58.8 2.10001 59.9 1.70001C60.9 1.30001 62.1 1.10001 63.4 1.10001H93.2C94.6 1.10001 95.6 1.30001 96.5 1.70001C97.3 2.10001 97.7 2.60001 97.5 3.20001L94.3 16.8ZM86.5 14.1L88.4 5.90001C88.5 5.60001 88.3 5.40001 87.9 5.10001C87.5 4.90001 86.9 4.80001 86.3 4.80001H68.4C67.7 4.80001 67.1 4.90001 66.6 5.10001C66.1 5.30001 65.8 5.60001 65.7 5.90001L63.8 14.1C63.7 14.4 63.9 14.6 64.3 14.9C64.7 15.1 65.3 15.2 65.9 15.2H83.8C84.5 15.2 85.1 15.1 85.6 14.9C86.2 14.7 86.5 14.4 86.5 14.1Z" fill="#DF1F26"/>
<path d="M207.2 19H198.9L201.9 5.9C202 5.6 201.8 5.4 201.4 5.1C201 4.9 200.4 4.8 199.8 4.8H186.7L187.6 1H227L226.1 4.8H213C212.3 4.8 211.7 4.9 211.2 5.1C210.7 5.3 210.4 5.6 210.3 5.9L207.2 19Z" fill="#DF1F26"/>
<path d="M308.2 19H299.8L300.8 14.6C300.8 14.3 300.6 14.1 300.2 13.8C299.8 13.6 299.3 13.5 298.6 13.5H280.8C280.1 13.5 279.5 13.6 279 13.8C278.5 14 278.2 14.3 278.1 14.6L277 18.9H268.6L272.3 3.1C272.4 2.5 273 2 274 1.6C275 1.2 276.2 1 277.5 1H307.3C308.7 1 309.7 1.2 310.6 1.6C311.4 2 311.8 2.5 311.6 3.1L310.2 9.4C310.1 10 309.5 10.5 308.4 10.9C307.4 11.3 306.2 11.5 304.8 11.5C306.3 11.5 307.4 11.8 308.3 12.3C308.6 12.4 308.7 12.7 308.8 12.9C309 13.4 309.1 13.6 309.1 13.7L308.2 19ZM302.2 8.7L302.8 6C302.9 5.7 302.7 5.5 302.3 5.2C301.9 5 301.3 4.9 300.7 4.9H282.8C282.1 4.9 281.5 5 281 5.2C280.5 5.4 280.2 5.7 280.1 6L279.5 8.7C279.4 9 279.6 9.2 280 9.5C280.4 9.7 281 9.8 281.6 9.8H299.5C300.1 9.8 300.7 9.7 301.2 9.5C301.8 9.2 302.1 9 302.2 8.7Z" fill="#DF1F26"/>
</svg>
